<?xml version="1.0" encoding="UTF-8"?>
<!DOCTYPE svg PUBLIC "-//W3C//DTD SVG 1.1//EN" "http://www.w3.org/Graphics/SVG/1.1/DTD/svg11.dtd">
<!-- Creator: CorelDRAW -->
<svg xmlns="http://www.w3.org/2000/svg" xml:space="preserve" width="6.82666in" height="6.82666in" style="shape-rendering:geometricPrecision; text-rendering:geometricPrecision; image-rendering:optimizeQuality; fill-rule:evenodd; clip-rule:evenodd"
viewBox="0 0 6.82666 6.82666"
 xmlns:xlink="http://www.w3.org/1999/xlink">
 <defs>
  <style type="text/css">
   <![CDATA[
    .fil2 {fill:none}
    .fil0 {fill:#424242}
    .fil1 {fill:#64B5F6;fill-rule:nonzero}
   ]]>
  </style>
 </defs>
 <g id="Layer_x0020_1">
  <metadata id="CorelCorpID_0Corel-Layer"/>
  <path class="fil0" d="M5.54982 0.853327l-0.60035 0 0 2.82508 0.60035 0 0 -2.82508zm-0.369846 1.66858c0,0.0384724 0.0311929,0.0696654 0.0696693,0.0696654 0.0384764,0 0.0696693,-0.0311929 0.0696693,-0.0696654l0 -0.512067c0,-0.0384764 -0.0311929,-0.0696693 -0.0696693,-0.0696693 -0.0384764,0 -0.0696693,0.0311929 -0.0696693,0.0696693l0 0.512067z"/>
  <path class="fil0" d="M1.87719 0.853327l-0.60035 0 0 2.82508 0.60035 0 0 -2.82508zm-0.346618 1.95108c0,0.0256496 0.0207953,0.0464488 0.0464449,0.0464488 0.0256496,0 0.0464449,-0.0207992 0.0464449,-0.0464488l0 -1.07707c0,-0.0256496 -0.0207953,-0.0464488 -0.0464449,-0.0464488 -0.0256496,0 -0.0464449,0.0207992 -0.0464449,0.0464488l0 1.07707z"/>
  <polygon class="fil0" points="1.74129,3.49263 5.08537,3.49263 5.08537,3.67841 1.74129,3.67841 "/>
  <polygon class="fil0" points="1.74129,0.853327 5.08537,0.853327 5.08537,1.03911 1.74129,1.03911 "/>
  <path class="fil1" d="M2.20077 1.35754l0.235811 0 0.0910276 0.352906 0.090626 -0.352906 0.234996 0 0 0.580071 -0.146402 0 0 -0.442311 -0.113583 0.442311 -0.132488 0 -0.113181 -0.442311 0 0.442311 -0.146807 0 0 -0.580071zm1.12367 0.484315l-0.204205 0 -0.0280906 0.0957559 -0.183138 0 0.21798 -0.580071 0.195429 0 0.218118 0.580071 -0.187594 0 -0.0285 -0.0957559zm-0.0375433 -0.125469l-0.0641535 -0.208528 -0.063748 0.208528 0.127902 0zm0.214469 -0.358846l0.544819 0 0 0.143295 -0.182866 0 0 0.436776 -0.17922 0 0 -0.436776 -0.182732 0 0 -0.143295zm0.626665 0l0.17922 0 0 0.202992 0.195965 0 0 -0.202992 0.180031 0 0 0.580071 -0.180031 0 0 -0.234594 -0.195965 0 0 0.234594 -0.17922 0 0 -0.580071z"/>
  <path class="fil0" d="M1.92814 4.29426l0.170453 0.466496 0.00242126 0.00605118 0.000177165 0.000452756 0.152185 0.38022c0.00447638,0.0112008 0.00768898,0.0174606 0.0144606,0.0275866 0.00681496,0.0102047 0.0113504,0.0155827 0.0200827,0.0240866l0.50702 0.493496c0.0136457,0.0132874 0.0245433,0.0292047 0.0318661,0.0468031 0.00725591,0.0174409 0.010811,0.036378 0.0106024,0.0552559l-4.33071e-005 0.00359449 -0.000125984 0.00252756 -0.00565748 0.172496 1.51654 0 0.00306299 -0.119571c0.0010748,-0.0420906 -0.00290157,-0.107976 0.00797638,-0.147492 0.00329134,-0.0119449 0.00797244,-0.0235669 0.0142047,-0.0342874 0.30535,-0.525319 0.287417,-0.985748 0.246929,-1.56951 -0.0118898,-0.171378 -0.0231535,-0.342898 -0.0254409,-0.514724 -0.000917323,-0.0687047 -0.0288031,-0.133961 -0.0777008,-0.182209 -0.0489724,-0.0483189 -0.114764,-0.0751299 -0.183531,-0.0751299 -0.0693268,0 -0.135508,0.0274016 -0.184528,0.0764252 -0.0256535,0.0256496 -0.0453858,0.0560118 -0.058374,0.0890551l0 -0.120024c0,-0.0701457 -0.0277283,-0.137114 -0.0773307,-0.186713 -0.0495945,-0.0496024 -0.116563,-0.0773268 -0.186705,-0.0773268 -0.0701535,0 -0.137114,0.0277244 -0.186713,0.0773268 -0.0206654,0.0206614 -0.0375315,0.0443346 -0.0501772,0.0699961l0 -0.0153465c0,-0.068937 -0.027248,-0.134744 -0.0759961,-0.183488 -0.0487402,-0.048748 -0.114563,-0.0759961 -0.183488,-0.0759961 -0.068937,0 -0.134748,0.027248 -0.183492,0.0759961 -0.0487441,0.0487402 -0.0852717,0.114551 -0.0852717,0.183488l0 -0.860681c0,-0.0677205 -0.0267717,-0.132386 -0.0746575,-0.180268 -0.0478858,-0.0478898 -0.112551,-0.0746654 -0.180272,-0.0746654 -0.0677205,0 -0.132382,0.0267756 -0.180272,0.0746614 -0.0478898,0.0478819 -0.0746575,0.112551 -0.0746575,0.180272l0 1.0845 0 0.846618c-0.0477402,-0.0847126 -0.0856732,-0.178646 -0.122488,-0.26735l-0.0164291 -0.0395787c-0.0052874,-0.0127402 -0.00923228,-0.0195433 -0.0172953,-0.0304724 -0.00770079,-0.0104213 -0.0129921,-0.0160236 -0.0228307,-0.0243543l-0.175024 -0.148087c-0.0515276,-0.0436024 -0.118264,-0.0658465 -0.185642,-0.0619921 -0.0675472,0.00386614 -0.130736,0.0334843 -0.177047,0.0827835 -0.0447362,0.047622 -0.0702244,0.109909 -0.0715354,0.175252 -0.00130315,0.0651142 0.0218543,0.128941 0.0645,0.178157l0.100244 0.115665z"/>
 </g>
 <rect class="fil2" width="6.82666" height="6.82666"/>
</svg>
